<svg width="29" height="36" viewBox="0 0 29 36" fill="none" xmlns="http://www.w3.org/2000/svg">
<path d="M28.8 15.2669V9.09422C26.14 9.09422 24.11 8.32264 22.8 6.82294C21.4555 5.11139 20.7023 2.9439 20.67 0.69377V0.248209L15.3 0.106934C15.3 0.106934 15.3 0.356883 15.3 0.69377V25.1779C15.1158 26.2717 14.6272 27.2778 13.9002 28.0604C13.1731 28.8429 12.2426 29.3642 11.2343 29.5538C10.2261 29.7434 9.1885 29.5923 8.26175 29.1208C7.335 28.6493 6.56368 27.8802 6.05192 26.9172C5.54015 25.9543 5.31259 24.8438 5.39994 23.7359C5.4873 22.6279 5.88536 21.5757 6.5404 20.7214C7.19545 19.8671 8.07592 19.2517 9.06297 18.9584C10.05 18.6651 11.0961 18.708 12.06 19.0813V13.1043C11.498 13.0042 10.9295 12.9533 10.36 12.9521C8.31099 12.9521 6.30799 13.6124 4.6043 14.8495C2.9006 16.0866 1.57274 17.845 0.788613 19.9022C0.00448865 21.9594 -0.200674 24.2232 0.199069 26.4071C0.598812 28.5911 1.58551 30.5971 3.03438 32.1717C4.48325 33.7462 6.32923 34.8185 8.33887 35.2529C10.3485 35.6873 12.4316 35.4644 14.3246 34.6122C16.2177 33.7601 17.8357 32.3171 18.974 30.4656C20.1124 28.6141 20.72 26.4374 20.72 24.2107C20.7189 23.7493 20.6922 23.2884 20.64 22.8305V12.8869C23.0818 14.5441 25.9228 15.3727 28.8 15.2669Z" fill="#E3EC78"/>
</svg>
