<svg width="40" height="36" viewBox="0 0 40 36" fill="none" xmlns="http://www.w3.org/2000/svg">
<path d="M39.8696 4.29025C38.3862 4.98961 36.8175 5.45192 35.2122 5.66282C36.9058 4.56331 38.1749 2.83358 38.7842 0.794503C37.1927 1.82406 35.4505 2.54945 33.6334 2.93914C32.4188 1.50775 30.8014 0.55494 29.0348 0.230146C27.2683 -0.0946472 25.4525 0.226944 23.8722 1.14448C22.2919 2.06202 21.0366 3.52361 20.303 5.30002C19.5695 7.07643 19.3993 9.06719 19.8191 10.9601C16.6012 10.7832 13.4535 9.87263 10.5805 8.28755C7.70756 6.70247 5.17357 4.47832 3.14316 1.75959C2.43101 3.11107 2.0568 4.64159 2.05775 6.19898C2.05522 7.64528 2.38183 9.06982 3.00848 10.3458C3.63514 11.6217 4.5424 12.7095 5.64948 13.5122C4.36273 13.4741 3.10347 13.0989 1.97881 12.4184V12.5256C1.98845 14.5521 2.64189 16.5127 3.82858 18.0759C5.01527 19.639 6.66238 20.7088 8.49129 21.1042C7.78726 21.337 7.05633 21.4598 6.32047 21.4688C5.81109 21.4623 5.30298 21.4121 4.80089 21.3186C5.32171 23.0618 6.32959 24.5852 7.68429 25.6769C9.03899 26.7685 10.6731 27.3741 12.3593 27.4094C9.51198 29.8441 5.99658 31.1729 2.3735 31.1839C1.71384 31.1863 1.0547 31.1433 0.400024 31.0553C4.09917 33.6508 8.41001 35.0287 12.8132 35.0228C15.8518 35.0571 18.8661 34.4331 21.6803 33.1872C24.4944 31.9413 27.0519 30.0985 29.2034 27.7665C31.3548 25.4344 33.0571 22.6599 34.2108 19.6049C35.3645 16.5499 35.9464 13.2757 35.9227 9.97353C35.9227 9.60894 35.9227 9.22291 35.9227 8.83687C37.4712 7.58186 38.8069 6.04333 39.8696 4.29025Z" fill="#E3EC78"/>
</svg>
