<svg width="63" height="64" viewBox="0 0 63 64" fill="none" xmlns="http://www.w3.org/2000/svg">
<path fill-rule="evenodd" clip-rule="evenodd" d="M31.9924 18.7999C31.6755 19.1602 31.5002 19.6228 31.5002 20.1032V40.9285C31.5002 41.4089 31.6755 41.8715 31.9924 42.2318C35.2408 45.9133 39.9914 48.2345 45.2814 48.2345C55.0601 48.2345 63 40.2946 63 30.5158C63 20.7371 55.0601 12.7972 45.2814 12.7972C39.9914 12.7972 35.2408 15.1184 31.9924 18.7999ZM35.4377 40.1567C37.94 42.7102 41.4266 44.297 45.2814 44.297C52.8866 44.297 59.0625 38.1211 59.0625 30.5158C59.0625 22.9106 52.8866 16.7347 45.2814 16.7347C41.4266 16.7347 37.94 18.3215 35.4377 20.875V40.1567Z" fill="white"/>
<path fill-rule="evenodd" clip-rule="evenodd" d="M29.5321 63.0075C31.0987 63.0075 32.6002 62.3908 33.709 61.2752C34.8157 60.1727 35.4394 58.6632 35.4373 57.1014C35.4373 45.4333 35.4373 11.8205 35.4373 11.8205C35.4373 11.2955 35.2315 10.7967 34.8619 10.4292L25.0172 0.585557C24.6497 0.21806 24.1478 0.00817871 23.627 0.00817871H5.90726C4.34067 0.00817871 2.83917 0.624898 1.73038 1.74051C0.623684 2.84301 -1.14441e-05 4.35248 -1.14441e-05 5.91434C0.00208664 16.6505 0.00208664 46.3652 0.00208664 57.1014C-1.52588e-05 60.3695 2.64597 63.0075 5.90726 63.0075H29.5321ZM22.8101 3.94549H5.90726C5.38436 3.94549 4.88456 4.15557 4.51497 4.52307C4.14537 4.89056 3.93747 5.38935 3.93747 5.91434C3.93747 16.6505 3.93747 46.3652 3.93747 57.1014C3.93747 58.1907 4.81946 59.0702 5.90726 59.0702H29.5321C30.055 59.0702 30.5548 58.8601 30.9244 58.4927C31.294 58.1252 31.5019 57.6264 31.4998 57.1014L31.5019 12.6342L22.8101 3.94549Z" fill="white"/>
<path fill-rule="evenodd" clip-rule="evenodd" d="M11.8131 29.5319V17.7189C11.8131 16.6321 12.6952 15.75 13.782 15.75V13.7812C13.782 15.75 13.782 15.75 13.782 15.75C14.8687 15.75 15.7508 16.6321 15.7508 17.7189C15.7508 22.3833 15.7508 29.5319 15.7508 29.5319C15.7508 30.6187 16.6328 31.5007 17.7196 31.5007C18.8064 31.5007 19.6884 30.6187 19.6884 29.5319C19.6884 29.5319 19.6884 22.3833 19.6884 17.7189C19.6884 14.4562 17.0443 11.8124 13.782 11.8124V13.7812C13.782 11.8124 13.782 11.8124 13.782 11.8124C10.5196 11.8124 7.87546 14.4562 7.87546 17.7189C7.87546 22.3833 7.87546 29.5319 7.87546 29.5319C7.87546 30.6187 8.75749 31.5007 9.84429 31.5007C10.9311 31.5007 11.8131 30.6187 11.8131 29.5319Z" fill="white"/>
<path fill-rule="evenodd" clip-rule="evenodd" d="M9.84429 23.6255H16.7352C17.822 23.6255 18.704 22.7435 18.704 21.6567C18.704 20.5699 17.822 19.6879 16.7352 19.6879H9.84429C8.75749 19.6879 7.87546 20.5699 7.87546 21.6567C7.87546 22.7435 8.75749 23.6255 9.84429 23.6255Z" fill="white"/>
<path fill-rule="evenodd" clip-rule="evenodd" d="M9.84369 39.3753H25.5944C26.6812 39.3753 27.5633 38.4932 27.5633 37.4065C27.5633 36.3197 26.6812 35.4376 25.5944 35.4376H9.84369C8.75689 35.4376 7.87485 36.3197 7.87485 37.4065C7.87485 38.4932 8.75689 39.3753 9.84369 39.3753Z" fill="white"/>
<path fill-rule="evenodd" clip-rule="evenodd" d="M9.84409 47.2493H25.5948C26.6816 47.2493 27.5637 46.3673 27.5637 45.2805C27.5637 44.1937 26.6816 43.3116 25.5948 43.3116H9.84409C8.75728 43.3116 7.87524 44.1937 7.87524 45.2805C7.87524 46.3673 8.75728 47.2493 9.84409 47.2493Z" fill="white"/>
<path fill-rule="evenodd" clip-rule="evenodd" d="M52.4181 33.0377C52.8846 32.6636 53.1563 32.0986 53.1563 31.5001C53.1563 30.9016 52.8846 30.3366 52.4181 29.9625L42.5744 22.0876C41.9838 21.6151 41.1726 21.5226 40.4915 21.8513C39.8083 22.1782 39.3752 22.8692 39.3752 23.6252V39.375C39.3752 40.131 39.8083 40.8221 40.4915 41.1489C41.1726 41.4777 41.9838 41.3851 42.5744 40.9126L52.4181 33.0377ZM33.469 13.7815C34.2644 13.7815 34.9829 13.3011 35.2881 12.5668C35.5932 11.8305 35.4239 10.9839 34.8609 10.4209L25.0172 0.577205C24.4542 0.0141467 23.6076 -0.155155 22.8713 0.149999C22.137 0.455153 21.6566 1.17373 21.6566 1.9691V11.8128C21.6566 12.8995 22.5386 13.7815 23.6253 13.7815H33.469Z" fill="white"/>
</svg>
