<svg width="61" height="61" viewBox="0 0 61 61" fill="none" xmlns="http://www.w3.org/2000/svg">
<path d="M33.55 27.45H15.25C14.4411 27.45 13.6653 27.7713 13.0933 28.3433C12.5213 28.9153 12.2 29.6911 12.2 30.5C12.2 31.3089 12.5213 32.0847 13.0933 32.6567C13.6653 33.2287 14.4411 33.55 15.25 33.55H33.55C34.3589 33.55 35.1347 33.2287 35.7067 32.6567C36.2787 32.0847 36.6 31.3089 36.6 30.5C36.6 29.6911 36.2787 28.9153 35.7067 28.3433C35.1347 27.7713 34.3589 27.45 33.55 27.45ZM45.75 15.25H15.25C14.4411 15.25 13.6653 15.5713 13.0933 16.1433C12.5213 16.7153 12.2 17.4911 12.2 18.3C12.2 19.1089 12.5213 19.8847 13.0933 20.4567C13.6653 21.0287 14.4411 21.35 15.25 21.35H45.75C46.5589 21.35 47.3347 21.0287 47.9067 20.4567C48.4787 19.8847 48.8 19.1089 48.8 18.3C48.8 17.4911 48.4787 16.7153 47.9067 16.1433C47.3347 15.5713 46.5589 15.25 45.75 15.25ZM51.85 0H9.15C6.72327 0 4.39593 0.964015 2.67997 2.67997C0.964015 4.39593 0 6.72327 0 9.15V39.65C0 42.0767 0.964015 44.4041 2.67997 46.12C4.39593 47.836 6.72327 48.8 9.15 48.8H44.4995L55.7845 60.1155C56.0695 60.3982 56.4075 60.6218 56.7791 60.7736C57.1507 60.9254 57.5486 61.0023 57.95 61C58.3501 61.0103 58.747 60.9267 59.109 60.756C59.666 60.5272 60.1428 60.1386 60.4793 59.6393C60.8158 59.1399 60.997 58.5521 61 57.95V9.15C61 6.72327 60.036 4.39593 58.32 2.67997C56.6041 0.964015 54.2767 0 51.85 0ZM54.9 50.5995L47.9155 43.5845C47.6305 43.3018 47.2925 43.0782 46.9209 42.9264C46.5493 42.7746 46.1514 42.6977 45.75 42.7H9.15C8.34109 42.7 7.56531 42.3787 6.99332 41.8067C6.42134 41.2347 6.1 40.4589 6.1 39.65V9.15C6.1 8.34109 6.42134 7.56531 6.99332 6.99332C7.56531 6.42134 8.34109 6.1 9.15 6.1H51.85C52.6589 6.1 53.4347 6.42134 54.0067 6.99332C54.5787 7.56531 54.9 8.34109 54.9 9.15V50.5995Z" fill="white"/>
</svg>
