<svg width="38" height="41" viewBox="0 0 38 41" fill="none" xmlns="http://www.w3.org/2000/svg">
<path d="M28.5234 7.82683C28.0883 7.82683 27.6629 7.96704 27.3011 8.22975C26.9393 8.49245 26.6573 8.86584 26.4908 9.30271C26.3243 9.73957 26.2808 10.2203 26.3656 10.684C26.4505 11.1478 26.6601 11.5738 26.9677 11.9082C27.2754 12.2425 27.6674 12.4702 28.0942 12.5625C28.5209 12.6547 28.9633 12.6074 29.3653 12.4264C29.7673 12.2455 30.1109 11.939 30.3526 11.5459C30.5943 11.1527 30.7234 10.6905 30.7234 10.2176C30.7234 9.58355 30.4916 8.97544 30.079 8.52707C29.6664 8.07871 29.1068 7.82683 28.5234 7.82683ZM36.9567 12.6483C36.9211 10.9952 36.6362 9.35973 36.1134 7.8069C35.6472 6.47828 34.9217 5.2752 33.9867 4.28047C33.0789 3.25925 31.9692 2.47577 30.7417 1.98929C29.3166 1.40386 27.8099 1.08718 26.2867 1.05289C24.3434 0.933349 23.72 0.93335 18.7334 0.93335C13.7467 0.93335 13.1234 0.933349 11.18 1.05289C9.65681 1.08718 8.15016 1.40386 6.72503 1.98929C5.49977 2.48069 4.39107 3.2635 3.48003 4.28047C2.54031 5.26703 1.81935 6.47291 1.37169 7.8069C0.832986 9.35563 0.541576 10.9929 0.510024 12.6483C0.400024 14.7601 0.400024 15.4375 0.400024 20.8567C0.400024 26.2758 0.400024 26.9532 0.510024 29.0651C0.541576 30.7204 0.832986 32.3577 1.37169 33.9065C1.81935 35.2405 2.54031 36.4464 3.48003 37.4329C4.39107 38.4499 5.49977 39.2327 6.72503 39.7241C8.15016 40.3095 9.65681 40.6262 11.18 40.6605C13.1234 40.78 13.7467 40.78 18.7334 40.78C23.72 40.78 24.3434 40.78 26.2867 40.6605C27.8099 40.6262 29.3166 40.3095 30.7417 39.7241C31.9692 39.2376 33.0789 38.4541 33.9867 37.4329C34.9258 36.4419 35.652 35.2377 36.1134 33.9065C36.6362 32.3536 36.9211 30.7182 36.9567 29.0651C36.9567 26.9532 37.0667 26.2758 37.0667 20.8567C37.0667 15.4375 37.0667 14.7601 36.9567 12.6483ZM33.6567 28.826C33.6434 30.0907 33.4326 31.3437 33.0334 32.5318C32.7407 33.3988 32.2705 34.1823 31.6584 34.823C31.0637 35.4814 30.3443 35.9913 29.55 36.3172C28.4568 36.751 27.3038 36.9801 26.14 36.9946C24.3067 37.0942 23.6284 37.1141 18.8067 37.1141C13.985 37.1141 13.3067 37.1141 11.4734 36.9946C10.265 37.0192 9.06179 36.817 7.9167 36.3969C7.15729 36.0544 6.47085 35.5457 5.90003 34.9026C5.29152 34.2626 4.82724 33.4785 4.54336 32.6115C4.09576 31.4064 3.84751 30.1249 3.81003 28.826C3.81003 26.8337 3.70003 26.0965 3.70003 20.8567C3.70003 15.6169 3.70003 14.8797 3.81003 12.8874C3.81824 11.5944 4.03543 10.3131 4.45169 9.10192C4.77445 8.26098 5.26985 7.51136 5.90003 6.91035C6.45702 6.22532 7.14539 5.68127 7.9167 5.31648C9.03421 4.87826 10.212 4.64921 11.4 4.63909C13.2334 4.63909 13.9117 4.51955 18.7334 4.51955C23.555 4.51955 24.2334 4.51955 26.0667 4.63909C27.2305 4.6536 28.3835 4.88265 29.4767 5.31648C30.3098 5.6525 31.0576 6.19878 31.6584 6.91035C32.2592 7.52235 32.7286 8.27058 33.0334 9.10192C33.4408 10.3151 33.6517 11.5959 33.6567 12.8874C33.7484 14.8797 33.7667 15.6169 33.7667 20.8567C33.7667 26.0965 33.7484 26.8337 33.6567 28.826ZM18.7334 10.636C16.874 10.64 15.0575 11.2427 13.5132 12.3682C11.969 13.4936 10.7664 15.0913 10.0574 16.9592C9.34833 18.8271 9.16469 20.8815 9.52965 22.8628C9.89461 24.8441 10.7918 26.6634 12.1078 28.0908C13.4239 29.5182 15.0997 30.4897 16.9236 30.8824C18.7475 31.2752 20.6376 31.0716 22.3551 30.2974C24.0725 29.5233 25.5403 28.2133 26.5729 26.5329C27.6056 24.8526 28.1567 22.8773 28.1567 20.8567C28.1591 19.5121 27.9169 18.1802 27.444 16.9377C26.971 15.6952 26.2767 14.5665 25.401 13.6166C24.5252 12.6668 23.4853 11.9145 22.341 11.4029C21.1967 10.8914 19.9707 10.6308 18.7334 10.636ZM18.7334 27.4912C17.5259 27.4912 16.3456 27.1021 15.3416 26.3731C14.3376 25.644 13.5552 24.6079 13.0931 23.3956C12.631 22.1833 12.5101 20.8493 12.7457 19.5624C12.9812 18.2754 13.5627 17.0933 14.4165 16.1654C15.2703 15.2376 16.3581 14.6057 17.5423 14.3497C18.7266 14.0937 19.9541 14.2251 21.0697 14.7272C22.1852 15.2294 23.1387 16.0797 23.8095 17.1708C24.4803 18.2618 24.8384 19.5445 24.8384 20.8567C24.8384 21.7279 24.6805 22.5907 24.3737 23.3956C24.0669 24.2005 23.6172 24.9319 23.0503 25.548C22.4834 26.164 21.8103 26.6527 21.0697 26.9861C20.329 27.3196 19.5351 27.4912 18.7334 27.4912Z" fill="#E3EC78"/>
</svg>
