<svg width="387" height="129" viewBox="0 0 387 129" fill="none" xmlns="http://www.w3.org/2000/svg">
<path d="M149.822 18.0457C148.374 16.7393 146.666 15.7577 144.698 15.1037C142.729 14.4498 140.605 14.1235 138.328 14.1235C135.482 14.1235 132.965 14.6473 130.784 15.6933C128.601 16.7408 126.821 18.2037 125.446 20.0866C124.07 18.2037 122.267 16.7393 120.037 15.6933C117.806 14.6473 115.269 14.1235 112.423 14.1235C110.098 14.1235 107.95 14.4512 105.982 15.1037C104.013 15.7577 102.305 16.7393 100.859 18.0457C99.4108 19.3536 98.2722 20.9629 97.4428 22.8706C96.612 24.7812 96.1967 27.0167 96.1967 29.5783V55.2344H107.654V33.1875C107.654 30.5205 108.164 28.6113 109.185 27.4599C110.204 26.31 111.616 25.7336 113.419 25.7336C115.269 25.7336 116.765 26.4139 117.903 27.773C119.042 29.1336 119.611 31.3032 119.611 34.2847V55.2329H131.069V34.2861C131.069 31.3046 131.649 29.135 132.813 27.7745C133.975 26.4154 135.482 25.7351 137.332 25.7351C139.134 25.7351 140.534 26.3115 141.53 27.4614C142.527 28.6128 143.025 30.5219 143.025 33.1889V55.2358H154.482V29.5798C154.482 27.0181 154.067 24.7812 153.236 22.8721C152.408 20.9629 151.27 19.3536 149.822 18.0457Z" fill="white"/>
<path d="M192.736 18.3603C191.336 17.0539 189.616 16.0195 187.577 15.2617C185.536 14.5039 183.236 14.1235 180.673 14.1235C177.921 14.1235 175.358 14.6341 172.987 15.6538C170.614 16.6735 168.55 18.0999 166.795 19.9301C165.039 21.7617 163.663 23.9839 162.666 26.5997C161.67 29.2155 161.172 32.0917 161.172 35.2298C161.172 38.5785 161.67 41.5586 162.666 44.1744C163.663 46.7902 165.026 48.9993 166.759 50.8046C168.491 52.6099 170.519 53.9821 172.844 54.9243C175.167 55.865 177.658 56.3361 180.316 56.3361C182.451 56.3361 184.409 56.1663 186.187 55.8269C187.967 55.4861 189.521 55.0808 190.849 54.6112C192.176 54.1401 193.28 53.6691 194.159 53.1995C195.036 52.7284 195.665 52.3626 196.045 52.1008L192.059 43.3127C191.964 43.418 191.656 43.6009 191.134 43.8628C190.612 44.1247 189.948 44.3865 189.141 44.6469C188.334 44.9088 187.385 45.1575 186.295 45.393C185.202 45.6286 184.041 45.7456 182.807 45.7456C181.193 45.7456 179.817 45.5891 178.679 45.2745C177.54 44.96 176.603 44.5431 175.868 44.0193C175.131 43.497 174.562 42.9338 174.16 42.3325C173.757 41.7312 173.507 41.1168 173.413 40.4892H175.904C180.126 40.4892 183.601 40.2024 186.33 39.626C189.058 39.0511 191.217 38.2274 192.806 37.1551C194.395 36.0842 195.499 34.7763 196.116 33.2328C196.732 31.6909 197.041 29.9514 197.041 28.0159C197.041 26.2384 196.674 24.5121 195.938 22.837C195.203 21.159 194.135 19.6682 192.736 18.3603ZM185.727 29.5008C185.537 30.0245 185.015 30.4956 184.161 30.9126C183.307 31.3324 182.002 31.6719 180.246 31.9323C178.49 32.1941 176.022 32.3243 172.844 32.3243C172.89 31.2783 173.081 30.2455 173.413 29.2258C173.745 28.2061 174.232 27.3034 174.873 26.5193C175.514 25.7351 176.307 25.0943 177.256 24.5969C178.205 24.101 179.32 23.8523 180.602 23.8523C182.404 23.8523 183.756 24.2575 184.658 25.068C185.559 25.88 186.011 26.8338 186.011 27.9325C186.011 28.4548 185.915 28.9785 185.727 29.5008Z" fill="white"/>
<path d="M228.855 17.3406C228.143 16.5564 226.991 15.8235 225.403 15.1432C223.813 14.4644 221.596 14.1235 218.749 14.1235C216.424 14.1235 214.289 14.4761 212.343 15.1827C210.398 15.8893 208.736 16.9222 207.362 18.2813C205.985 19.6418 204.907 21.3155 204.124 23.3022C203.341 25.2904 202.949 27.5653 202.949 30.1284V55.2343H214.407V32.8744C214.407 30.2074 215.035 28.2982 216.293 27.1469C217.549 25.997 219.08 25.4206 220.883 25.4206C222.258 25.4206 223.516 25.6049 224.655 25.9706C225.793 26.3378 226.766 26.7299 227.573 27.1469C227.715 26.9903 227.928 26.7285 228.214 26.3627C228.499 25.997 228.794 25.5522 229.103 25.0285C229.411 24.5062 229.672 23.9049 229.886 23.2246C230.099 22.5458 230.206 21.8129 230.206 21.0273C230.206 20.2431 230.086 19.5628 229.85 18.9879C229.612 18.413 229.282 17.8629 228.855 17.3406Z" fill="white"/>
<path d="M240.81 15.2208C239.007 15.2208 237.56 15.6407 236.469 16.476C235.377 17.3128 234.833 18.7509 234.833 20.7918V55.2343H246.291V16.3985C246.006 16.2946 245.341 16.0722 244.298 15.7314C243.253 15.392 242.091 15.2208 240.81 15.2208Z" fill="white"/>
<path d="M281.733 42.8782C281.258 43.1664 280.664 43.4663 279.953 43.7809C279.242 44.0954 278.423 44.369 277.498 44.6045C276.573 44.84 275.565 44.9571 274.474 44.9571C273.193 44.9571 271.983 44.7742 270.844 44.4085C269.706 44.0427 268.721 43.4663 267.89 42.6822C267.059 41.898 266.396 40.8915 265.897 39.6611C265.399 38.4322 265.15 36.9546 265.15 35.2283C265.15 33.6074 265.399 32.1693 265.897 30.9126C266.395 29.6559 267.059 28.6113 267.89 27.7745C268.72 26.9391 269.692 26.3115 270.808 25.8917C271.923 25.4733 273.097 25.264 274.332 25.264C276.419 25.264 278.221 25.6693 279.741 26.4798C281.259 27.2917 282.445 28.1666 283.299 29.1087C283.63 28.901 284.022 28.5733 284.473 28.1285C284.923 27.6853 285.362 27.1747 285.789 26.5983C286.217 26.0233 286.572 25.3694 286.856 24.6364C287.142 23.9049 287.284 23.0945 287.284 22.205C287.284 21.3155 287.128 20.5445 286.821 19.8906C286.511 19.2366 286.096 18.6236 285.575 18.0472C284.482 16.8447 282.834 15.8893 280.629 15.1827C278.423 14.4761 276.062 14.1235 273.547 14.1235C270.795 14.1235 268.198 14.5946 265.755 15.5353C263.31 16.476 261.175 17.838 259.349 19.6155C257.522 21.3945 256.075 23.605 255.008 26.2457C253.941 28.8878 253.407 31.8825 253.407 35.2298C253.407 38.7351 253.951 41.8088 255.043 44.4494C256.134 47.0915 257.58 49.2889 259.384 51.0401C261.186 52.7927 263.285 54.1138 265.682 55.0018C268.077 55.8913 270.557 56.3361 273.119 56.3361C275.016 56.3361 276.748 56.1664 278.314 55.8255C279.88 55.4846 281.268 55.0808 282.477 54.6097C283.687 54.1387 284.719 53.6427 285.573 53.119C286.428 52.5967 287.114 52.152 287.637 51.7848L282.655 42.2125C282.514 42.3676 282.205 42.5915 281.733 42.8782Z" fill="white"/>
<path d="M320.341 17.7707C318.561 16.4365 316.462 15.4958 314.043 14.9458C311.623 14.3971 309.036 14.1221 306.285 14.1221C297.839 14.1221 293.616 16.397 293.616 20.9483C293.616 21.6812 293.735 22.3601 293.972 22.9877C294.208 23.6153 294.47 24.1785 294.755 24.6745C295.04 25.1719 295.324 25.5771 295.61 25.8902C295.894 26.2047 296.083 26.4139 296.179 26.5178C296.367 26.3613 296.701 26.1521 297.176 25.8902C297.649 25.6298 298.278 25.3679 299.061 25.1061C299.844 24.8456 300.793 24.6233 301.908 24.4389C303.023 24.2561 304.315 24.1639 305.787 24.1639C308.919 24.1639 311.16 24.6876 312.512 25.7337C313.865 26.7811 314.54 28.2192 314.54 30.0494C313.875 29.9455 313.034 29.8665 312.013 29.8139C310.993 29.7627 309.724 29.7349 308.206 29.7349C302.132 29.7349 297.696 30.7677 294.897 32.8334C292.097 34.9006 290.698 38.3386 290.698 43.1503C290.698 44.9292 290.984 46.616 291.552 48.2107C292.121 49.8068 293.117 51.2054 294.541 52.4079C295.964 53.6119 297.862 54.5658 300.234 55.2724C302.606 55.979 305.596 56.3316 309.201 56.3316C311.337 56.3316 313.364 56.2789 315.286 56.1751C317.208 56.0697 318.915 55.9395 320.41 55.783C321.904 55.6265 323.15 55.4816 324.147 55.3514C325.143 55.2212 325.784 55.1042 326.068 54.9988V31.3061C326.068 28.01 325.557 25.2655 324.538 23.0681C323.519 20.8708 322.12 19.105 320.341 17.7707ZM314.612 46.9964C314.279 47.1017 313.591 47.1925 312.548 47.2715C311.504 47.3505 310.365 47.3885 309.132 47.3885C307.566 47.3885 306.308 47.2451 305.361 46.9569C304.411 46.6702 303.699 46.3176 303.226 45.8977C302.751 45.4793 302.443 45.0097 302.301 44.486C302.159 43.9637 302.087 43.4663 302.087 42.9952C302.087 42.3676 302.181 41.7663 302.372 41.1899C302.561 40.615 302.906 40.1044 303.405 39.6596C303.902 39.2164 304.602 38.8623 305.504 38.6005C306.405 38.34 307.568 38.2084 308.992 38.2084C310.652 38.2084 311.898 38.2479 312.729 38.3254C313.558 38.4044 314.187 38.4966 314.614 38.6005V46.9964H314.612Z" fill="white"/>
<path d="M369.411 30.9916C369.411 28.2719 368.936 25.8522 367.987 23.7338C367.037 21.6154 365.746 19.8496 364.108 18.4379C362.472 17.0261 360.551 15.9537 358.344 15.2208C356.137 14.4893 353.8 14.1221 351.334 14.1221C348.818 14.1221 346.47 14.4893 344.289 15.2208C342.106 15.9537 340.184 17.0246 338.524 18.4379C336.863 19.8496 335.558 21.6154 334.609 23.7338C333.659 25.8522 333.185 28.2719 333.185 30.9916V55.2359H344.643V33.8941C344.643 28.4548 346.873 25.7351 351.333 25.7351C353.468 25.7351 355.104 26.4022 356.243 27.7365C357.382 29.0707 357.951 31.1232 357.951 33.8956V51.1235V89.6024C359.985 89.3142 362.261 88.8563 364.71 88.1321C366.408 87.6303 367.97 87.0642 369.386 86.4805C369.393 76.0656 369.399 65.6507 369.406 55.2359H369.409V30.9916H369.411Z" fill="white"/>
<path d="M89.5772 49.4688C88.6271 46.7755 87.5243 43.6901 86.2676 40.2111C85.0095 36.7337 83.6453 33.0587 82.1749 29.1877C80.7032 25.3181 79.2806 21.6168 77.9044 18.0852C76.5283 14.5551 75.2596 11.3775 74.0971 8.55251C72.9333 5.72752 71.9977 3.66181 71.2864 2.35391C71.1908 2.30271 70.9533 2.14471 70.5751 1.88284C70.1942 1.62097 69.6966 1.34739 69.0808 1.05919C68.4637 0.772446 67.7644 0.523742 66.9814 0.314537C66.1984 0.105333 65.4035 0 64.5967 0C62.4614 0 60.7416 0.444742 59.4371 1.33423C58.1313 2.22371 57.0285 3.79348 56.1274 6.04206C54.4195 10.2788 52.6757 14.6721 50.8961 19.2234C49.1165 23.7732 47.4086 28.2338 45.7724 32.6008C44.1361 36.9692 42.6047 41.1006 41.1821 44.9965C39.7581 48.8939 38.5492 52.307 37.5526 55.2358H49.865C50.5285 53.353 51.1576 51.4965 51.7508 49.6648C52.344 47.8347 53.0194 45.8202 53.7785 43.6228H74.4886C75.3897 46.1332 76.1487 48.3174 76.7658 50.174C77.3816 52.0305 77.9509 53.7187 78.4737 55.2344H91.5692C91.1896 54.0859 90.5261 52.1636 89.5772 49.4688ZM69.1618 27.3341C69.6222 30.0581 70.0841 32.7807 70.5446 35.5033C68.5407 33.7916 66.5355 32.08 64.5317 30.3698C62.2916 32.1034 60.0515 33.8355 57.8114 35.5691C58.6953 32.7968 59.5804 30.0245 60.4642 27.2507C58.3223 25.3883 56.1805 23.5245 54.0386 21.6622H62.1164C62.9604 19.1488 63.8044 16.6369 64.6498 14.1235C65.4155 16.6369 66.1825 19.1488 66.9482 21.6622C69.6594 21.7265 72.3719 21.7924 75.0831 21.8567C73.1098 23.6825 71.1351 25.5083 69.1618 27.3341Z" fill="white"/>
<path d="M163.039 80.4575C162.274 80.6682 161.538 80.8057 160.832 80.8686C160.125 80.9315 159.542 80.9637 159.083 80.9637C158.701 81.4274 158.367 81.8912 158.08 82.355C157.793 82.8187 157.555 83.262 157.363 83.6819C156.866 84.7777 156.618 85.7052 156.618 86.463C156.618 87.1799 156.855 87.7489 157.334 88.1703C157.812 88.5916 158.547 88.7189 159.541 88.5492C160.037 88.4234 160.611 88.2127 161.261 87.9172C161.91 87.6231 162.617 87.2749 163.382 86.8741C164.146 86.4747 164.929 86.0431 165.732 85.5779C166.535 85.1141 167.338 84.6518 168.14 84.1866C169.44 83.3864 170.7 82.649 171.925 81.9746C173.147 81.3016 174.161 80.8364 174.964 80.5833C175.69 80.4575 176.015 80.7091 175.94 81.3411C175.863 81.6791 175.614 81.9951 175.194 82.2891C174.773 82.5847 174.391 82.8173 174.047 82.984C174.009 82.984 173.979 82.9943 173.961 83.0162C173.941 83.0382 173.913 83.0484 173.875 83.0484C173.149 83.4273 172.403 83.8384 171.639 84.2802C170.873 84.7221 170.09 85.1961 169.288 85.7022C167.568 86.7556 165.867 87.7563 164.186 88.7043C162.503 89.6523 160.86 90.274 159.254 90.5681C157.649 90.8622 156.482 90.6734 155.758 89.999C155.032 89.326 154.668 88.378 154.668 87.155C154.668 85.891 154.973 84.6065 155.585 83.3C155.929 82.5422 156.397 81.7625 156.989 80.9608C157.581 80.1605 158.241 79.3807 158.968 78.6229C159.694 77.8651 160.458 77.1687 161.261 76.5367C162.064 75.9047 162.847 75.4205 163.611 75.0825C164.07 74.9143 164.537 74.8207 165.015 74.7987C165.493 74.7782 165.923 74.8514 166.305 75.0196C166.687 75.1879 166.983 75.441 167.194 75.7774C167.404 76.1154 167.472 76.5353 167.395 77.0414C167.204 77.969 166.658 78.7166 165.761 79.2857C164.864 79.8562 163.956 80.2468 163.039 80.4575ZM160.803 78.8146H161.147L160.86 79.0677L160.803 78.8146ZM163.842 77.0444C162.962 77.4657 162.065 78.0553 161.147 78.8146C161.95 78.7312 162.799 78.5732 163.699 78.3406C164.596 78.1094 165.18 77.7612 165.448 77.2975C165.448 77.0868 165.257 76.961 164.875 76.9186C164.491 76.8761 164.147 76.9171 163.842 77.0444Z" fill="white"/>
<path d="M185.283 74.4519C184.863 75.5052 184.461 76.5805 184.08 77.6748C183.698 78.7705 183.372 79.8663 183.106 80.9621L186.718 78.813L189.127 77.3588C189.393 77.1481 189.643 77.0852 189.872 77.1686C190.102 77.2534 190.273 77.4012 190.389 77.6104C190.464 77.8635 190.436 78.1166 190.302 78.3682C190.168 78.6213 189.968 78.8539 189.7 79.0631C188.629 79.7376 187.501 80.4325 186.317 81.1493C185.132 81.8662 183.91 82.5816 182.648 83.2984C182.495 84.4366 182.552 85.3744 182.82 86.1117C183.087 86.8491 183.66 87.2177 184.54 87.2177C185.687 87.2177 187.502 86.3955 189.986 84.7526C190.826 84.1631 191.611 83.5735 192.337 82.9824C193.063 82.3929 193.807 81.7404 194.573 81.0235L194.802 80.8977H194.745C194.975 80.687 195.223 80.5715 195.49 80.5495C195.756 80.529 195.967 80.6241 196.12 80.8333C196.273 81.044 196.302 81.2971 196.206 81.5912C196.111 81.8867 195.949 82.1398 195.719 82.349C194.954 83.0234 194.094 83.7505 193.14 84.5303C192.184 85.31 191.19 86.0444 190.158 86.7335C189.125 87.4225 188.094 87.9931 187.062 88.4408C186.029 88.8899 185.055 89.1357 184.137 89.1752C182.646 89.26 181.662 88.8592 181.184 87.9741C180.706 87.089 180.506 85.9303 180.583 84.4981C179.207 85.2983 177.849 86.0547 176.513 86.7642C175.174 87.4738 173.895 88.135 172.671 88.7465C172.364 88.8694 172.107 88.8899 171.897 88.808C171.686 88.7275 171.563 88.5432 171.524 88.2564C171.487 88.0121 171.544 87.7561 171.697 87.4898C171.85 87.2236 172.059 87.0261 172.327 86.9003C173.626 86.2683 175.003 85.5412 176.456 84.7204C177.908 83.8983 179.381 83.0673 180.871 82.2231C181.176 80.6227 181.606 79.0631 182.161 77.546C182.714 76.0289 183.201 74.7649 183.623 73.754C183.89 73.0811 184.331 72.7855 184.942 72.8689C185.477 72.9538 185.65 73.3546 185.459 74.07L185.283 74.4519Z" fill="white"/>
<path d="M220.085 80.8363C220.238 81.0469 220.266 81.2898 220.172 81.5634C220.076 81.8384 219.894 82.0798 219.628 82.2904L218.768 82.9224C217.658 83.6393 216.177 84.1967 214.325 84.5975C212.471 84.9984 210.588 85.3466 208.677 85.6406L205.524 86.1468C204.798 87.3274 203.947 88.391 202.973 89.339C201.999 90.287 200.994 90.8663 199.963 91.077C199.313 91.2028 198.807 91.1092 198.444 90.7932C198.08 90.4772 197.9 90.0251 197.9 89.4341C197.9 88.7172 198.273 87.9068 199.018 87.0012C199.764 86.0956 200.996 85.3685 202.716 84.8214C203.059 84.6531 203.423 84.5478 203.805 84.5054L204.493 84.3152C204.875 83.5998 205.18 82.8522 205.41 82.071C205.639 81.2912 205.733 80.6066 205.696 80.017C205.658 79.5532 205.533 79.1114 205.323 78.6901C205.112 78.2688 204.826 77.9001 204.463 77.5841C204.1 77.2681 203.69 77.0267 203.23 76.857C202.771 76.6887 202.294 76.6463 201.797 76.7312C201.147 76.9418 200.526 77.29 199.934 77.7743C199.341 78.26 198.787 78.8276 198.271 79.4801C197.755 80.134 197.277 80.8289 196.838 81.5663C196.399 82.3036 196.044 83.0102 195.778 83.6832C195.625 84.0211 195.482 84.4103 195.348 84.8521C195.214 85.2939 195.07 85.6845 194.918 86.021L192.739 91.7719C190.446 97.7979 188.191 103.865 185.973 109.976C183.757 116.085 181.731 122.089 179.895 127.989C179.82 128.242 179.658 128.473 179.408 128.684C179.16 128.895 178.903 129 178.635 129C178.33 129 178.129 128.895 178.032 128.684C177.937 128.472 177.927 128.22 178.003 127.926C178.959 124.892 179.991 121.732 181.099 118.445C182.209 115.159 183.364 111.86 184.568 108.554C185.772 105.246 186.986 101.948 188.208 98.6625C189.432 95.3752 190.635 92.1932 191.82 89.1181L193.082 85.8308L193.312 85.0715C193.388 84.8609 193.465 84.6502 193.542 84.4395C193.617 84.2289 193.694 84.0182 193.771 83.8075L193.944 83.4286C195.243 80.0155 196.504 76.6024 197.727 73.1893C197.841 72.9787 198.023 72.768 198.271 72.5573C198.519 72.3467 198.758 72.2413 198.988 72.2413C199.293 72.2413 199.493 72.3584 199.59 72.5895C199.685 72.8221 199.695 73.0855 199.62 73.3795L198.359 76.7926C198.818 76.3713 199.285 76.0026 199.763 75.6866C200.241 75.3706 200.746 75.1073 201.282 74.8966C201.933 74.686 202.524 74.5806 203.059 74.5806C204.511 74.5806 205.668 75.1497 206.528 76.2879C207.388 77.4261 207.761 78.7749 207.647 80.333C207.57 81.4288 207.245 82.6298 206.672 83.9363L208.851 83.6203C209.768 83.452 210.694 83.2838 211.631 83.1141C212.566 82.9458 213.485 82.7454 214.383 82.5143C215.282 82.2831 216.103 82.03 216.849 81.7565C217.595 81.4829 218.214 81.1771 218.712 80.8406C218.942 80.7148 219.199 80.6417 219.486 80.6197C219.77 80.5949 219.97 80.668 220.085 80.8363ZM203.057 86.6515H203.114C202.807 87.0729 202.463 87.4635 202.081 87.8204C201.699 88.1789 201.355 88.4642 201.049 88.6734C201.393 88.4627 201.765 88.2213 202.168 87.9463C202.568 87.6727 202.903 87.4196 203.171 87.1884C203.438 86.9573 203.591 86.7774 203.63 86.6515C203.668 86.5243 203.477 86.5243 203.057 86.6515Z" fill="white"/>
<path d="M224.672 80.4575C223.907 80.6682 223.171 80.8057 222.465 80.8686C221.758 80.9315 221.175 80.9637 220.716 80.9637C220.334 81.4274 219.999 81.8912 219.713 82.355C219.426 82.8187 219.187 83.262 218.996 83.6819C218.498 84.7777 218.25 85.7052 218.25 86.463C218.25 87.1799 218.489 87.7489 218.967 88.1703C219.445 88.5916 220.18 88.7189 221.174 88.5492C221.67 88.4234 222.243 88.2127 222.894 87.9172C223.543 87.6231 224.25 87.2749 225.014 86.8741C225.779 86.4747 226.563 86.0431 227.364 85.5779C228.167 85.1141 228.97 84.6518 229.773 84.1866C231.072 83.3864 232.333 82.649 233.558 81.9746C234.78 81.3016 235.794 80.8364 236.597 80.5833C237.323 80.4575 237.648 80.7091 237.571 81.3411C237.494 81.6791 237.246 81.9951 236.825 82.2891C236.404 82.5847 236.022 82.8173 235.678 82.984C235.64 82.984 235.611 82.9943 235.592 83.0162C235.572 83.0382 235.544 83.0484 235.506 83.0484C234.78 83.4273 234.034 83.8384 233.27 84.2802C232.504 84.7221 231.721 85.1961 230.92 85.7022C229.2 86.7556 227.498 87.7563 225.817 88.7043C224.134 89.6523 222.491 90.274 220.886 90.5681C219.28 90.8622 218.114 90.6734 217.389 89.999C216.663 89.326 216.299 88.378 216.299 87.155C216.299 85.891 216.605 84.6065 217.216 83.3C217.56 82.5422 218.029 81.7625 218.62 80.9608C219.212 80.1605 219.872 79.3807 220.599 78.6229C221.325 77.8651 222.089 77.1687 222.892 76.5367C223.695 75.9047 224.478 75.4205 225.242 75.0825C225.702 74.9143 226.169 74.8207 226.646 74.7987C227.124 74.7782 227.554 74.8514 227.936 75.0196C228.319 75.1879 228.615 75.441 228.826 75.7774C229.035 76.1154 229.103 76.5353 229.026 77.0414C228.835 77.969 228.289 78.7166 227.392 79.2857C226.497 79.8562 225.589 80.2468 224.672 80.4575ZM222.436 78.8146H222.779L222.493 79.0677L222.436 78.8146ZM225.475 77.0444C224.595 77.4657 223.698 78.0553 222.779 78.8146C223.582 78.7312 224.432 78.5732 225.331 78.3406C226.228 78.1094 226.812 77.7612 227.08 77.2975C227.08 77.0868 226.889 76.961 226.507 76.9186C226.124 76.8761 225.78 76.9171 225.475 77.0444Z" fill="white"/>
<path d="M240.151 74.073C239.653 75.5067 239.204 76.8014 238.804 77.9601C238.402 79.1188 237.972 80.4355 237.514 81.9101C238.851 79.8868 240.323 77.9396 241.929 76.0641C243.535 74.19 245.197 72.5778 246.917 71.2289C247.682 70.6394 248.408 70.1654 249.096 69.8069C249.784 69.45 250.395 69.27 250.932 69.27C251.466 69.27 251.896 69.4822 252.222 69.902C252.547 70.3234 252.67 71.0197 252.594 71.9882C252.594 72.114 252.575 72.2516 252.537 72.3993C252.499 72.5471 252.48 72.6831 252.48 72.8104C252.403 73.1059 252.251 73.359 252.021 73.5682C251.792 73.7789 251.562 73.9267 251.334 74.0101C251.066 74.0101 250.856 73.9267 250.703 73.757C250.626 73.6736 250.579 73.5668 250.56 73.441C250.54 73.3137 250.531 73.2098 250.531 73.125C250.683 72.0716 250.502 71.5552 249.987 71.5771C249.471 71.5991 248.715 71.9882 247.721 72.7461C246.612 73.6312 245.485 74.6962 244.339 75.9383C243.192 77.1818 242.103 78.4985 241.07 79.8883C240.038 81.2781 239.064 82.7016 238.147 84.1543C237.23 85.6085 236.445 86.9881 235.797 88.2946C235.644 88.5477 235.51 88.8008 235.396 89.0524C235.282 89.3055 235.166 89.5586 235.052 89.8102C234.784 90.4846 234.345 90.7787 233.733 90.6953C233.198 90.6105 233.026 90.2315 233.217 89.5571C233.217 89.5162 233.235 89.4518 233.274 89.3669C234.152 86.46 235.08 83.5106 236.054 80.5188C237.029 77.5271 238.013 74.5777 239.007 71.6708C239.082 71.4177 239.246 71.1865 239.494 70.9759C239.742 70.7652 240.001 70.6598 240.267 70.6598C240.573 70.6598 240.773 70.7769 240.87 71.008C240.965 71.2406 240.975 71.504 240.899 71.798L240.151 74.073Z" fill="white"/>
<path d="M254.771 76.1591C254.732 76.2015 254.714 76.2849 254.714 76.4122C254.446 77.0032 254.159 77.6864 253.854 78.4662C253.547 79.246 253.271 80.0462 253.023 80.8684C252.774 81.6906 252.564 82.523 252.393 83.3657C252.22 84.2084 252.135 84.9676 252.135 85.6406C252.135 86.6939 252.393 87.4957 252.909 88.0428C253.425 88.5914 254.294 88.7377 255.518 88.4846C256.128 88.3164 256.808 88.0106 257.554 87.5673C258.299 87.1255 259.064 86.6091 259.847 86.018C260.63 85.4285 261.403 84.8067 262.169 84.1542C262.934 83.5017 263.64 82.88 264.29 82.2904V82.3533L265.78 80.962V81.0249L266.182 80.5831C266.603 80.2042 266.985 80.2466 267.329 80.7089C267.443 80.9196 267.452 81.1727 267.358 81.4668C267.262 81.7623 267.119 82.0154 266.928 82.2246L265.954 83.1097C265.074 83.9099 264.062 84.7745 262.915 85.7006C261.768 86.6281 260.611 87.481 259.446 88.2608C258.28 89.0405 257.144 89.6623 256.034 90.1246C254.925 90.5884 253.971 90.7566 253.168 90.6308C252.058 90.4201 251.275 89.9256 250.817 89.1459C250.358 88.3661 250.13 87.4079 250.13 86.2697C250.13 85.427 250.226 84.5419 250.417 83.6144C250.608 82.6883 250.847 81.7608 251.133 80.8333C251.42 79.9072 251.736 79.0104 252.08 78.1473C252.423 77.2841 252.748 76.4941 253.054 75.7773C253.359 75.1453 253.779 74.8717 254.316 74.9551C254.621 74.9975 254.821 75.1233 254.918 75.334C255.014 75.5447 254.984 75.8182 254.832 76.1562H254.771V76.1591ZM256.032 68.2591C256.223 68.006 256.461 67.8275 256.748 67.7222C257.035 67.6168 257.274 67.6066 257.465 67.69C257.656 67.8158 257.761 68.0162 257.781 68.2898C257.799 68.5648 257.733 68.8267 257.58 69.0798C257.466 69.2919 257.331 69.4807 257.179 69.6489C257.025 69.8171 256.893 70.0073 256.777 70.218C256.586 70.4711 256.357 70.651 256.09 70.7549C255.822 70.8602 255.574 70.8719 255.344 70.7871C254.885 70.493 254.846 70.0293 255.23 69.3958L256.032 68.2591Z" fill="white"/>
<path d="M271.97 80.4575C271.205 80.6682 270.469 80.8057 269.763 80.8686C269.055 80.9315 268.473 80.9637 268.014 80.9637C267.631 81.4274 267.297 81.8912 267.01 82.355C266.724 82.8187 266.485 83.262 266.294 83.6819C265.796 84.7777 265.548 85.7052 265.548 86.463C265.548 87.1799 265.785 87.7489 266.264 88.1703C266.742 88.5916 267.477 88.7189 268.471 88.5492C268.968 88.4234 269.541 88.2127 270.191 87.9172C270.84 87.6231 271.548 87.2749 272.313 86.8741C273.078 86.4747 273.862 86.0431 274.663 85.5779C275.466 85.1141 276.269 84.6518 277.072 84.1866C278.371 83.3864 279.632 82.649 280.857 81.9746C282.079 81.3016 283.093 80.8364 283.896 80.5833C284.622 80.4575 284.947 80.7091 284.87 81.3411C284.793 81.6791 284.545 81.9951 284.124 82.2891C283.703 82.5847 283.321 82.8173 282.978 82.984C282.939 82.984 282.91 82.9943 282.891 83.0162C282.871 83.0382 282.843 83.0484 282.805 83.0484C282.079 83.4273 281.333 83.8384 280.569 84.2802C279.803 84.7221 279.02 85.1961 278.219 85.7022C276.499 86.7556 274.797 87.7563 273.116 88.7043C271.433 89.6523 269.79 90.274 268.185 90.5681C266.579 90.8622 265.412 90.6734 264.688 89.999C263.962 89.326 263.598 88.378 263.598 87.155C263.598 85.891 263.904 84.6065 264.515 83.3C264.859 82.5422 265.328 81.7625 265.919 80.9608C266.511 80.1605 267.171 79.3807 267.897 78.6229C268.623 77.8651 269.387 77.1687 270.19 76.5367C270.993 75.9047 271.776 75.4205 272.54 75.0825C272.999 74.9143 273.466 74.8207 273.944 74.7987C274.422 74.7782 274.852 74.8514 275.234 75.0196C275.616 75.1879 275.912 75.441 276.123 75.7774C276.333 76.1154 276.401 76.5353 276.324 77.0414C276.133 77.969 275.587 78.7166 274.69 79.2857C273.794 79.8562 272.887 80.2468 271.97 80.4575ZM269.733 78.8146H270.077L269.79 79.0677L269.733 78.8146ZM272.772 77.0444C271.893 77.4657 270.995 78.0553 270.077 78.8146C270.88 78.7312 271.731 78.5732 272.629 78.3406C273.526 78.1094 274.11 77.7612 274.378 77.2975C274.378 77.0868 274.186 76.961 273.805 76.9186C273.421 76.8761 273.078 76.9171 272.772 77.0444Z" fill="white"/>
<path d="M314.568 80.8363C314.644 81.047 314.634 81.2898 314.539 81.5634C314.443 81.8384 314.3 82.0798 314.109 82.2905C313.306 82.9649 312.494 83.6291 311.672 84.2816C310.85 84.9355 310.039 85.5134 309.236 86.0196C308.433 86.5258 307.669 86.9354 306.943 87.2514C306.216 87.5674 305.547 87.7254 304.936 87.7254C304.095 87.7254 303.389 87.3772 302.816 86.6823C302.242 85.9874 301.899 84.839 301.783 83.237V81.8457C301.783 81.2562 301.774 80.592 301.754 79.8546C301.734 79.1173 301.677 78.4326 301.582 77.8006C301.486 77.1686 301.332 76.6522 301.122 76.2513C300.911 75.8519 300.615 75.6515 300.233 75.6515C299.43 75.6515 298.503 75.9573 297.453 76.5688C296.401 77.1803 295.332 77.9601 294.243 78.9066C293.153 79.8546 292.082 80.908 291.033 82.0667C289.982 83.2253 289.036 84.3313 288.194 85.3847C288.231 85.4271 288.088 85.6802 287.764 86.144C287.439 86.6077 287.162 87.0086 286.933 87.3451C286.627 87.8512 286.292 88.3984 285.93 88.988C285.567 89.579 285.204 90.1042 284.841 90.568C284.477 91.0318 284.104 91.3902 283.723 91.6433C283.341 91.8964 282.996 91.9798 282.691 91.8964C282.155 91.7281 281.774 91.4121 281.544 90.9484C281.315 90.4846 281.201 89.895 281.201 89.1782C281.201 88.3355 281.335 87.3568 281.601 86.239C281.868 85.1228 282.212 83.9744 282.634 82.7937C283.054 81.6146 283.503 80.4457 283.981 79.2855C284.458 78.1269 284.907 77.0633 285.328 76.0933C285.557 75.5871 285.776 75.1029 285.987 74.6391C286.197 74.1754 286.36 73.776 286.474 73.438C286.588 73.2274 286.77 73.0065 287.018 72.7738C287.267 72.5427 287.505 72.4257 287.735 72.4257C288.04 72.4257 288.251 72.531 288.365 72.7417C288.479 72.9538 288.479 73.2274 288.365 73.5639C288.288 73.776 288.174 74.0598 288.022 74.4168C287.868 74.7752 287.697 75.1863 287.505 75.6486C287.046 76.7019 286.511 77.9455 285.9 79.3777C285.288 80.81 284.733 82.2217 284.237 83.613C283.739 85.0043 283.386 86.2464 283.177 87.3421C282.966 88.4379 283.033 89.1752 283.377 89.5541C283.453 89.3859 283.577 89.1972 283.75 88.9851C283.922 88.7744 284.046 88.6061 284.123 88.4789C284.619 87.721 285.145 86.9091 285.699 86.0459C286.253 85.1828 286.951 84.267 287.792 83.297C288.288 82.7074 288.882 82.033 289.569 81.2737C290.256 80.5159 291.002 79.7464 291.805 78.9666C292.608 78.1869 293.448 77.4393 294.328 76.7224C295.206 76.007 296.066 75.3853 296.908 74.8586C297.748 74.3319 298.561 73.953 299.344 73.7204C300.127 73.4892 300.844 73.4571 301.494 73.6253C302.029 73.7935 302.44 74.0993 302.727 74.5426C303.013 74.9844 303.232 75.5008 303.386 76.0919C303.539 76.6829 303.624 77.3354 303.644 78.0508C303.662 78.7676 303.673 79.483 303.673 80.1999C303.673 80.9168 303.682 81.5912 303.702 82.2232C303.721 82.8552 303.788 83.4243 303.903 83.929C304.017 84.4352 304.198 84.8361 304.447 85.1301C304.695 85.4256 305.049 85.5719 305.507 85.5719C305.698 85.5719 305.946 85.5412 306.253 85.4768C306.558 85.4139 306.902 85.2779 307.285 85.0658C308.164 84.6444 309.101 84.0548 310.095 83.2955C311.089 82.5377 312.006 81.8209 312.847 81.1464L313.191 80.8304C313.382 80.7046 313.63 80.6198 313.936 80.5773C314.243 80.5422 314.453 80.6256 314.568 80.8363Z" fill="white"/>
<path d="M320.931 76.7912C321.007 76.7078 321.075 76.5923 321.132 76.4431C321.189 76.2953 321.237 76.1797 321.275 76.0949C320.969 76.1373 320.559 76.3158 320.042 76.6318C319.526 76.9478 319.01 77.3164 318.494 77.7378C317.977 78.1591 317.48 78.5907 317.003 79.0339C316.526 79.4757 316.173 79.8239 315.943 80.077C315.102 80.9621 314.356 81.9525 313.707 83.0482C313.057 84.144 312.733 85.1768 312.733 86.1453C312.733 86.5666 312.819 86.9675 312.99 87.3464C313.163 87.7253 313.457 88.0413 313.879 88.2944C314.262 88.5899 314.777 88.7362 315.428 88.7362C316.268 88.7362 317.271 88.505 318.438 88.0413C319.603 87.5775 320.808 87.0099 322.05 86.334C323.291 85.6611 324.516 84.9223 325.719 84.1221C326.923 83.3218 328.022 82.605 329.016 81.973L330.392 81.0879L330.965 80.709C331.232 80.5832 331.491 80.5408 331.739 80.5832C331.987 80.6256 332.149 80.7734 332.226 81.025C332.302 81.2781 332.274 81.5414 332.14 81.815C332.006 82.09 331.785 82.3109 331.48 82.4792C331.059 82.7322 330.629 82.9956 330.19 83.2692C329.751 83.5442 329.283 83.8485 328.786 84.185C327.715 84.9018 326.598 85.6289 325.433 86.3647C324.266 87.1021 323.091 87.7838 321.907 88.4085C320.722 89.0346 319.565 89.551 318.438 89.9592C317.31 90.3674 316.268 90.6117 315.313 90.6936C313.86 90.777 312.742 90.4405 311.959 89.6827C311.175 88.9249 310.783 87.9125 310.783 86.6486C310.783 85.3846 311.146 84.0796 311.873 82.7293C312.255 81.9715 312.847 81.1289 313.65 80.2014C314.453 79.2753 315.322 78.3785 316.259 77.5154C317.196 76.6522 318.151 75.9032 319.125 75.2712C320.099 74.6392 320.969 74.2399 321.734 74.0701C322.231 74.0292 322.594 74.0921 322.824 74.2603C323.053 74.4286 323.186 74.6714 323.225 74.9874C323.262 75.3034 323.215 75.6823 323.081 76.1256C322.947 76.5674 322.765 77.0004 322.537 77.4218C322.423 77.6339 322.231 77.8007 321.964 77.9279C321.696 78.0537 321.428 78.0962 321.161 78.0537C320.625 77.9294 320.549 77.5081 320.931 76.7912Z" fill="white"/>
<path d="M335.609 81.9745C334.921 82.3125 334.175 82.5436 333.372 82.6694C332.57 82.7952 331.844 82.8801 331.193 82.9225C330.657 83.6394 330.276 84.2714 330.047 84.8185C329.817 85.3671 329.703 85.8718 329.703 86.3356C329.703 87.2207 330.047 87.9785 330.736 88.6105C331.424 89.2425 332.303 89.7706 333.372 90.1905C334.442 90.6118 335.638 90.9483 336.956 91.2014C338.275 91.4545 339.574 91.6446 340.854 91.7705C342.135 91.8963 343.309 91.9811 344.38 92.0236C345.45 92.066 346.291 92.0865 346.903 92.0865C349.999 92.1274 353.057 91.9914 356.076 91.6754C359.095 91.3594 362.115 90.7903 365.134 89.9696C368.153 89.1474 371.202 88.0326 374.279 86.6194C377.355 85.2076 380.5 83.4067 383.71 81.2152C383.902 81.0894 384.073 80.9621 384.227 80.8363C384.379 80.7105 384.55 80.6052 384.743 80.5203C384.972 80.3521 385.221 80.2789 385.489 80.2994C385.755 80.3214 385.948 80.4369 386.062 80.6476C386.176 80.8583 386.176 81.1114 386.062 81.4054C385.948 81.7009 385.755 81.954 385.489 82.1632C381.208 85.155 377.013 87.5352 372.904 89.3054C368.796 91.0756 364.505 92.36 360.033 93.1617C358.466 93.4558 356.526 93.6986 354.214 93.8888C351.901 94.0776 349.464 94.1726 346.904 94.1726C344.917 94.1726 342.938 94.098 340.97 93.9517C339.001 93.804 337.186 93.5406 335.524 93.1617C333.861 92.7828 332.398 92.2766 331.138 91.6447C329.877 91.0127 328.959 90.2329 328.385 89.3054C327.965 88.6734 327.755 87.8936 327.755 86.9676C327.755 86.0825 327.975 85.1769 328.415 84.2494C328.854 83.3234 329.418 82.4485 330.105 81.6263C330.794 80.8041 331.568 80.0463 332.428 79.3514C333.288 78.6565 334.157 78.0772 335.037 77.6134C335.38 77.4452 335.753 77.2974 336.155 77.1716C336.556 77.0458 336.929 76.9814 337.274 76.9814C337.618 76.9814 337.884 77.0765 338.077 77.2667C338.268 77.4569 338.325 77.7831 338.249 78.2469C338.095 79.2168 337.781 79.9966 337.303 80.5847C336.822 81.1743 336.258 81.6366 335.609 81.9745ZM333.029 80.7734H333.431L333.087 81.0265L333.029 80.7734ZM336.182 79.0662C335.8 79.151 335.37 79.35 334.892 79.666C334.414 79.982 333.926 80.3506 333.43 80.772C334.003 80.6886 334.556 80.5189 335.092 80.2658C335.627 80.0127 335.989 79.6338 336.182 79.1276V79.0662Z" fill="white"/>
<path d="M14.061 9.40112L12.434 13.8661C12.6875 13.8661 12.9409 13.8602 13.1957 13.8471C13.4492 13.8339 13.7027 13.8281 13.9575 13.8281C14.7656 13.8032 15.6707 13.7842 16.6753 13.771C17.6799 13.7578 18.5969 13.752 19.4276 13.752C21.7128 13.752 23.8812 13.8281 25.9368 13.9817C26.9295 14.0329 27.6726 14.1411 28.1703 14.3065C28.6666 14.4718 28.9147 14.6312 28.9147 14.7834C28.9147 14.9107 28.7422 15.0306 28.3959 15.1462C28.0495 15.2603 27.5532 15.3174 26.9069 15.3174C26.6985 15.3174 26.4743 15.3115 26.2314 15.2983C25.9886 15.2852 25.7404 15.2662 25.4869 15.2413C24.3324 15.1403 23.1845 15.0701 22.0419 15.0321C20.8993 14.994 19.7395 14.975 18.5624 14.975C17.5936 14.975 16.6235 14.9882 15.6548 15.0131C14.686 15.0394 13.7159 15.0643 12.7472 15.0891C12.6092 15.0891 12.4818 15.095 12.3663 15.1082C12.2509 15.1213 12.1235 15.1272 11.9855 15.1272C11.2702 16.9339 10.5483 18.9192 9.82103 21.0815C9.0938 23.2437 8.38383 25.5084 7.69243 27.8755C6.99971 30.2411 6.32423 32.6462 5.66734 35.0879C5.00912 37.531 4.39735 39.9288 3.83202 42.2828C3.26669 44.6352 2.75843 46.9013 2.30856 49.0768C1.85869 51.2522 1.48313 53.2301 1.18321 55.012C1.16065 55.189 1.09165 55.3485 0.974864 55.489C0.85941 55.6279 0.709453 55.7113 0.524992 55.7377C0.363091 55.7889 0.230385 55.7625 0.126874 55.6616C0.0233639 55.5592 -0.0164478 55.4319 0.00611217 55.2798C0.560822 51.6414 1.21772 48.1112 1.97945 44.6893C2.74118 41.2675 3.57722 37.9085 4.48891 34.6139C5.4006 31.3193 6.38661 28.0686 7.44958 24.8632C8.51122 21.6579 9.63126 18.4262 10.8084 15.1696C10.3465 15.1696 9.89136 15.1828 9.44016 15.2076C8.99029 15.234 8.53378 15.2457 8.07197 15.2457C7.17222 15.2969 6.2194 15.3291 5.21614 15.3408C4.21156 15.3539 3.272 15.3598 2.39482 15.3598H1.18321C0.814291 15.3598 0.686893 15.1433 0.802347 14.7117C0.871354 14.5595 0.981499 14.4191 1.13146 14.2918C1.28141 14.1645 1.42606 14.1133 1.56408 14.1397H2.70667C3.58386 14.1397 4.4783 14.1338 5.38999 14.1207C6.30167 14.1089 7.20805 14.0768 8.1078 14.0256L11.2582 13.9114C11.72 12.6138 12.1978 11.2913 12.6954 9.94242C13.1918 8.59356 13.6708 7.29591 14.1326 6.04947C14.2016 5.92219 14.3118 5.79491 14.4618 5.66763C14.6117 5.54035 14.7564 5.47745 14.8944 5.47745C15.0788 5.47745 15.1996 5.54182 15.258 5.66763C15.315 5.79491 15.3097 5.96023 15.2407 6.16358L14.061 9.40112Z" fill="white"/>
<path d="M24.7239 1.42492C24.4691 1.90916 24.205 2.40511 23.9277 2.91276C23.6503 3.42187 23.3849 3.94269 23.1314 4.47814C22.1149 6.53946 21.1117 8.78512 20.119 11.2137C19.1264 13.6436 18.1682 16.1248 17.2459 18.6558C16.3223 21.1882 15.4518 23.7133 14.6316 26.231C13.8115 28.7503 13.079 31.1291 12.4327 33.3674L11.9138 35.199C11.8674 35.3263 11.8329 35.4346 11.8103 35.5238C11.7864 35.6131 11.7639 35.695 11.7413 35.7725C12.2031 35.1625 12.7047 34.5392 13.2475 33.9029C13.789 33.2679 14.3264 32.6564 14.8572 32.0712C15.3881 31.486 15.8897 30.952 16.3634 30.4678C16.8359 29.985 17.2459 29.6032 17.5923 29.3223C18.1231 28.9156 18.6314 28.585 19.1158 28.3304C19.6001 28.0758 20.0381 27.9486 20.4309 27.9486C20.8224 27.9486 21.117 28.1022 21.3134 28.4094C21.5084 28.7152 21.5615 29.214 21.4686 29.9046L21.0533 31.9381V31.9C20.9153 32.513 20.7812 33.1085 20.6552 33.6834C20.5278 34.2584 20.4999 34.7382 20.5689 35.1215C20.6379 35.6584 20.9033 35.9261 21.3651 35.9261C21.896 35.9261 22.8076 35.5443 24.1002 34.7806C24.5381 34.5012 24.988 34.2028 25.4511 33.8838C25.913 33.5664 26.3389 33.2284 26.7317 32.8729L26.9746 32.6827C27.0662 32.6315 27.171 32.5496 27.2865 32.434C27.4019 32.3199 27.5054 32.2248 27.5983 32.1473C27.7138 32.0463 27.869 32.0083 28.0654 32.0332C28.2618 32.0595 28.4291 32.1473 28.5671 32.3009C28.6586 32.4531 28.5432 32.6827 28.2207 32.9885C27.6899 33.4464 27.1073 33.9233 26.4716 34.4193C25.836 34.9152 25.1963 35.3658 24.5501 35.7667C23.9038 36.169 23.2695 36.4938 22.6457 36.7396C22.022 36.9868 21.4686 37.1097 20.9843 37.1097C20.545 37.1097 20.1827 36.9824 19.8934 36.7278C19.6041 36.4733 19.4369 36.0549 19.3918 35.4682C19.3453 35.1888 19.3334 34.864 19.3573 34.4954C19.3798 34.1267 19.4382 33.739 19.5298 33.3308L19.7023 32.6052C19.7713 32.3258 19.8523 32.001 19.9452 31.6323C20.0367 31.2637 20.1124 30.9067 20.1708 30.5644C20.2278 30.2206 20.2623 29.928 20.2743 29.6866C20.2849 29.4452 20.2451 29.2989 20.1535 29.2477C19.8762 29.1965 19.5364 29.293 19.1317 29.5344C18.7283 29.7773 18.289 30.1064 17.8166 30.5263C17.3428 30.9462 16.8531 31.429 16.3449 31.9761C15.8366 32.5233 15.3522 33.0573 14.8904 33.5795C14.4286 34.1018 14.0132 34.5978 13.6443 35.0674C13.2754 35.5385 12.9861 35.9013 12.7791 36.1544C12.7101 36.2568 12.6065 36.4089 12.4672 36.6123C12.3292 36.8156 12.1779 37.0263 12.0173 37.2413C11.8554 37.4579 11.6935 37.6744 11.533 37.8894C11.3711 38.106 11.2437 38.2903 11.1521 38.4424L11.0831 38.5185C11.0605 38.5434 11.0366 38.5566 11.0141 38.5566C10.9902 38.5566 10.9796 38.5697 10.9796 38.5946H11.0141C10.8986 38.9501 10.6558 39.1535 10.2868 39.2047C10.194 39.2047 10.1249 39.1783 10.0798 39.1286V39.1666C9.82636 39.0393 9.75735 38.8228 9.87148 38.5185C10.3559 36.7118 10.8986 34.7719 11.4985 32.6988C12.0983 30.6258 12.7499 28.4884 13.4545 26.2866C14.1579 24.0863 14.909 21.8538 15.7052 19.5892C16.5015 17.3245 17.3322 15.111 18.1974 12.9487C19.0627 10.7865 19.9571 8.69295 20.8807 6.67113C21.8044 4.64784 22.7506 2.78402 23.7193 1.07966C23.8109 0.927511 23.9383 0.811935 24.1002 0.735861C24.2621 0.659786 24.4121 0.634915 24.5501 0.659786C24.6881 0.71099 24.781 0.800231 24.8274 0.92751C24.8739 1.05625 24.8394 1.22157 24.7239 1.42492Z" fill="white"/>
<path d="M31.2318 31.8811C30.7699 32.0084 30.3254 32.0903 29.8994 32.1298C29.4721 32.1678 29.1204 32.1868 28.8431 32.1868C28.6121 32.4677 28.4104 32.7471 28.2379 33.0266C28.0654 33.3075 27.9207 33.5737 27.8053 33.8283C27.5054 34.4895 27.3554 35.0498 27.3554 35.5077C27.3554 35.9407 27.4987 36.2845 27.788 36.5376C28.076 36.7922 28.5206 36.8683 29.1204 36.7673C29.4203 36.6912 29.7667 36.564 30.1595 36.3855C30.551 36.207 30.9783 35.9978 31.4401 35.7564C31.9019 35.515 32.3744 35.2546 32.8601 34.9737C33.3444 34.6943 33.8288 34.4149 34.3145 34.134C35.0988 33.6512 35.8606 33.205 36.5997 32.7984C37.3376 32.3917 37.9493 32.1108 38.4351 31.9586C38.873 31.8826 39.0694 32.0347 39.0229 32.4165C38.9765 32.6199 38.8265 32.8115 38.5731 32.9885C38.3183 33.167 38.0887 33.3075 37.8803 33.4084C37.8564 33.4084 37.8392 33.4142 37.8286 33.4274C37.8166 33.4406 37.7994 33.4464 37.7768 33.4464C37.3376 33.6761 36.8877 33.9234 36.4259 34.1911C35.9641 34.4588 35.4916 34.7441 35.0059 35.0498C33.9668 35.6862 32.9397 36.2904 31.9245 36.8624C30.9093 37.4344 29.9166 37.8104 28.9479 37.9889C27.9791 38.1673 27.2745 38.0518 26.8365 37.6451C26.3973 37.2384 26.1783 36.6664 26.1783 35.9276C26.1783 35.1639 26.3628 34.3886 26.7317 33.6C26.94 33.1421 27.2214 32.6711 27.5797 32.1883C27.9367 31.7055 28.3348 31.2345 28.774 30.7766C29.212 30.3187 29.6738 29.8988 30.1595 29.517C30.6439 29.1351 31.1163 28.8426 31.5795 28.6392C31.8568 28.5383 32.1381 28.4812 32.4274 28.468C32.7154 28.4549 32.9755 28.5002 33.2064 28.6012C33.4373 28.7036 33.6165 28.8557 33.7426 29.0591C33.8686 29.2624 33.9098 29.517 33.8633 29.8227C33.7479 30.383 33.4188 30.8336 32.8773 31.1774C32.3332 31.5183 31.7851 31.7538 31.2318 31.8811ZM29.8808 30.8892H30.0892L29.9166 31.0414L29.8808 30.8892ZM31.7161 29.8198C31.1853 30.0744 30.6425 30.4298 30.0892 30.8892C30.5735 30.838 31.0871 30.7429 31.6299 30.6025C32.1713 30.4635 32.5243 30.2528 32.6862 29.9734C32.6862 29.8461 32.5708 29.7701 32.3399 29.7437C32.1089 29.7189 31.9006 29.7437 31.7161 29.8198Z" fill="white"/>
<path d="M363.433 101.154C365.236 101.154 366.683 100.736 367.774 99.8988C368.866 99.062 369.41 97.6239 369.41 95.583L369.601 92.1992C368.243 92.78 366.727 93.3417 365.063 93.8289C362.454 94.594 360.053 95.011 357.967 95.229C357.961 96.8119 357.956 98.3934 357.952 99.9763C358.237 100.08 358.902 100.303 359.945 100.643C360.988 100.984 362.151 101.154 363.433 101.154Z" fill="white"/>
</svg>
