<svg width="79" height="36" viewBox="0 0 79 36" fill="none" xmlns="http://www.w3.org/2000/svg">
<path d="M13.4478 28.7014C12.8235 28.4686 12.3968 28.1528 11.8757 27.5393C10.7813 26.2506 10.7212 25.8659 10.7212 20.143C10.7212 14.6287 10.7991 14.1094 11.8187 12.8146C13.2483 10.9998 16.5538 11.0534 17.9654 12.9143C18.9029 14.1503 18.9791 14.7006 18.9791 20.2277C18.9791 24.6019 18.9442 25.331 18.6986 26.0964C18.3222 27.2684 17.213 28.4024 16.0876 28.7656C15.0262 29.1081 14.5035 29.0956 13.4478 28.7012V28.7014ZM15.3885 26.0488C16.0257 25.783 16.0966 25.2012 16.0966 20.2441C16.0966 17.0808 16.038 15.3629 15.9205 15.0828C15.5263 14.1424 14.1739 14.1424 13.7797 15.0828C13.6622 15.3629 13.6037 17.0808 13.6037 20.2441C13.6037 25.775 13.6686 26.0959 14.7984 26.1407C14.9843 26.148 15.2498 26.1065 15.3885 26.0488ZM22.3106 28.6086C22.0862 28.4762 21.7706 28.079 21.6095 27.7264C21.3376 27.1318 21.313 26.5236 21.27 19.3387L21.2237 11.5922H24.1987V18.6829C24.1987 24.752 24.2321 25.8041 24.4304 25.9828C24.7757 26.2942 25.3366 26.0662 25.9709 25.3568L26.5359 24.7247V11.5924H29.4962V28.694H26.5359V26.972L25.7958 27.686C25.3888 28.0786 24.8301 28.5042 24.5543 28.6316C23.9114 28.9285 22.8337 28.9173 22.3106 28.6086ZM4.25304 23.9949L4.25071 19.2962L2.32537 12.608L0.400024 5.91974L1.96435 5.87115C2.88005 5.8427 3.5681 5.89214 3.62388 5.99035C3.67639 6.08263 4.17296 8.02815 4.72733 10.3137C5.28201 12.5992 5.77094 14.4695 5.81441 14.4699C5.85804 14.4702 6.26657 12.9277 6.72247 11.0417C7.17853 9.15601 7.65608 7.21303 7.784 6.72403L8.01663 5.83508H9.65824C10.9957 5.83508 11.2846 5.87877 11.2168 6.07044C11.1712 6.1998 10.2871 9.24439 9.25251 12.8361L7.37142 19.3663V28.6936H4.25522L4.25304 23.9949Z" fill="#E3EC78"/>
<path d="M44.7859 35.2893C37.1738 35.0131 35.1126 34.4244 33.7112 32.125C33.145 31.1961 32.5095 29.1171 32.3071 27.5316C31.5966 21.9666 31.7711 10.3622 32.6251 6.36265C33.3985 2.74067 35.2173 0.96633 38.5351 0.596698C41.7943 0.2335 50.2906 0.0357312 58.5548 0.130552C67.4768 0.232823 71.6772 0.440244 73.197 0.853561C76.1699 1.66174 77.612 4.04158 78.1148 8.96752C78.2099 9.8988 78.3267 13.1501 78.3744 16.1925C78.5667 28.4744 77.7164 32.3815 74.476 34.1067C73.2525 34.7583 72.4521 34.908 68.9939 35.1323C65.2379 35.3758 49.9103 35.4752 44.7859 35.2893ZM48.5306 28.5949C48.7933 28.4471 49.3156 28.0186 49.6914 27.6416L50.3748 26.9576V28.6938H53.3352V11.7615H50.3748V24.6748L49.6942 25.4142C48.9638 26.2082 48.6683 26.3072 48.2826 25.888C48.0679 25.6546 48.0376 24.766 48.0376 18.6917V11.7613H45.0772V19.0963C45.0772 27.1877 45.1385 27.8279 45.9759 28.5072C46.5062 28.9371 47.8401 28.9828 48.5306 28.5949ZM62.7794 28.5402C63.0513 28.3601 63.428 27.8579 63.6364 27.398C64.0019 26.5913 64.0092 26.4803 64.0605 20.9928C64.1166 14.9765 64.0274 13.8901 63.3771 12.6706C63.0158 11.993 62.1541 11.4227 61.4912 11.4227C60.8527 11.4227 59.9378 11.8895 59.2402 12.5711L58.477 13.3166V6.00437H55.6725V28.6936H58.477V27.1305L59.1166 27.7585C59.4685 28.1037 59.9769 28.4906 60.2463 28.618C60.9697 28.9603 62.2028 28.9224 62.7794 28.5401V28.5402ZM59.0612 25.7782L58.4769 25.4101V15.0256L59.1684 14.627C59.7294 14.3036 59.9424 14.26 60.298 14.3957C61.0663 14.6889 61.149 15.3358 61.0957 20.6234L61.0477 25.337L60.6105 25.7454C60.0753 26.2456 59.8123 26.2512 59.0612 25.7782ZM72.1881 28.5103C73.6939 27.7685 74.372 26.514 74.4905 24.2504L74.5684 22.7675H71.5647V23.7726C71.5647 25.0036 71.3891 25.5414 70.8656 25.9142C70.2756 26.3341 69.5422 26.0673 69.1891 25.3038C68.9758 24.8431 68.9164 24.2816 68.9164 22.725L68.916 20.7355H74.5251V18.2493C74.5251 15.1202 74.3 14.1229 73.3291 12.9495C72.4712 11.9127 71.5521 11.4999 70.1625 11.5277C69.0106 11.5505 68.2409 11.8626 67.4324 12.634C66.1111 13.895 65.9107 15.0184 65.9897 20.7356C66.0411 24.4504 66.0977 25.3554 66.3196 25.9943C66.6985 27.0851 67.383 27.9156 68.323 28.4248C69.3825 28.9981 71.1198 29.0367 72.1881 28.5103ZM68.9161 16.9201C68.9161 14.8141 69.4133 14.0955 70.6645 14.3942C71.2925 14.5442 71.5651 15.3082 71.5651 16.9203V18.1956H68.9163V16.9203L68.9161 16.9201ZM42.1169 18.9577V9.22167H45.5447V6.00454H35.7287V9.22167H39.0007V28.6938H42.1169V18.9577Z" fill="#E3EC78"/>
</svg>
